<svg width="55" height="52" viewBox="0 0 55 52" fill="none" xmlns="http://www.w3.org/2000/svg">
<mask id="path-1-outside-1_88_5" maskUnits="userSpaceOnUse" x="25.2192" y="9" width="29" height="35" fill="black">
<rect fill="white" x="25.2192" y="9" width="29" height="35"/>
<path d="M27.5717 42V10.9166H40.5333C42.8605 10.9166 44.8083 11.2454 46.3766 11.9031C47.9551 12.5608 49.1389 13.4816 49.9281 14.6654C50.7275 15.8492 51.1272 17.2203 51.1272 18.7785C51.1272 19.9623 50.8793 21.0197 50.3835 21.9506C49.8877 22.8713 49.2047 23.6353 48.3345 24.2424C47.4643 24.8495 46.4576 25.2744 45.3142 25.5173V25.8208C46.5689 25.8815 47.7274 26.2205 48.7898 26.8377C49.8624 27.4549 50.7224 28.315 51.37 29.4179C52.0176 30.5107 52.3414 31.8058 52.3414 33.3033C52.3414 34.9728 51.9164 36.4653 51.0665 37.7807C50.2165 39.0859 48.9871 40.118 47.3783 40.8769C45.7695 41.6256 43.8167 42 41.5198 42H27.5717ZM35.0846 35.9442H39.7289C41.3579 35.9442 42.557 35.6356 43.3259 35.0184C44.1051 34.4012 44.4946 33.5411 44.4946 32.4382C44.4946 31.6389 44.3074 30.9508 43.933 30.3741C43.5587 29.7872 43.0275 29.3369 42.3394 29.0233C41.6514 28.6995 40.8267 28.5376 39.8655 28.5376H35.0846V35.9442ZM35.0846 23.696H39.2432C40.0628 23.696 40.7913 23.5594 41.4288 23.2862C42.0662 23.013 42.562 22.6184 42.9162 22.1024C43.2804 21.5863 43.4625 20.964 43.4625 20.2355C43.4625 19.1933 43.0932 18.3738 42.3546 17.7768C41.616 17.1798 40.6193 16.8813 39.3646 16.8813H35.0846V23.696Z"/>
</mask>
<path d="M27.5717 42V10.9166H40.5333C42.8605 10.9166 44.8083 11.2454 46.3766 11.9031C47.9551 12.5608 49.1389 13.4816 49.9281 14.6654C50.7275 15.8492 51.1272 17.2203 51.1272 18.7785C51.1272 19.9623 50.8793 21.0197 50.3835 21.9506C49.8877 22.8713 49.2047 23.6353 48.3345 24.2424C47.4643 24.8495 46.4576 25.2744 45.3142 25.5173V25.8208C46.5689 25.8815 47.7274 26.2205 48.7898 26.8377C49.8624 27.4549 50.7224 28.315 51.37 29.4179C52.0176 30.5107 52.3414 31.8058 52.3414 33.3033C52.3414 34.9728 51.9164 36.4653 51.0665 37.7807C50.2165 39.0859 48.9871 40.118 47.3783 40.8769C45.7695 41.6256 43.8167 42 41.5198 42H27.5717ZM35.0846 35.9442H39.7289C41.3579 35.9442 42.557 35.6356 43.3259 35.0184C44.1051 34.4012 44.4946 33.5411 44.4946 32.4382C44.4946 31.6389 44.3074 30.9508 43.933 30.3741C43.5587 29.7872 43.0275 29.3369 42.3394 29.0233C41.6514 28.6995 40.8267 28.5376 39.8655 28.5376H35.0846V35.9442ZM35.0846 23.696H39.2432C40.0628 23.696 40.7913 23.5594 41.4288 23.2862C42.0662 23.013 42.562 22.6184 42.9162 22.1024C43.2804 21.5863 43.4625 20.964 43.4625 20.2355C43.4625 19.1933 43.0932 18.3738 42.3546 17.7768C41.616 17.1798 40.6193 16.8813 39.3646 16.8813H35.0846V23.696Z" fill="#06B6D4"/>
<path d="M27.5717 42H26.0717V43.5H27.5717V42ZM27.5717 10.9166V9.41656H26.0717V10.9166H27.5717ZM46.3766 11.9031L45.7965 13.2864L45.7997 13.2877L46.3766 11.9031ZM49.9281 14.6654L48.68 15.4975L48.685 15.5048L49.9281 14.6654ZM50.3835 21.9506L51.7042 22.6617L51.7074 22.6557L50.3835 21.9506ZM48.3345 24.2424L47.4762 23.0122L47.4762 23.0122L48.3345 24.2424ZM45.3142 25.5173L45.0026 24.05L43.8142 24.3024V25.5173H45.3142ZM45.3142 25.8208H43.8142V27.25L45.2417 27.3191L45.3142 25.8208ZM48.7898 26.8377L48.0363 28.1347L48.0417 28.1378L48.7898 26.8377ZM51.37 29.4179L50.0765 30.1774L50.0796 30.1826L51.37 29.4179ZM51.0665 37.7807L52.3235 38.5992L52.3263 38.5947L51.0665 37.7807ZM47.3783 40.8769L48.0113 42.2368L48.0183 42.2335L47.3783 40.8769ZM35.0846 35.9442H33.5846V37.4442H35.0846V35.9442ZM43.3259 35.0184L42.3945 33.8426L42.387 33.8486L43.3259 35.0184ZM43.933 30.3741L42.6684 31.1808L42.6749 31.1908L43.933 30.3741ZM42.3394 29.0233L41.7007 30.3805L41.7089 30.3844L41.7172 30.3881L42.3394 29.0233ZM35.0846 28.5376V27.0376H33.5846V28.5376H35.0846ZM35.0846 23.696H33.5846V25.196H35.0846V23.696ZM42.9162 22.1024L41.6907 21.2373L41.685 21.2454L41.6794 21.2536L42.9162 22.1024ZM42.3546 17.7768L43.2975 16.6102L43.2975 16.6102L42.3546 17.7768ZM35.0846 16.8813V15.3813H33.5846V16.8813H35.0846ZM29.0717 42V10.9166H26.0717V42H29.0717ZM27.5717 12.4166H40.5333V9.41656H27.5717V12.4166ZM40.5333 12.4166C42.7301 12.4166 44.4662 12.7285 45.7965 13.2864L46.9567 10.5198C45.1504 9.76232 42.9909 9.41656 40.5333 9.41656V12.4166ZM45.7997 13.2877C47.1608 13.8548 48.0858 14.606 48.6801 15.4974L51.1762 13.8333C50.192 12.3571 48.7494 11.2668 46.9535 10.5185L45.7997 13.2877ZM48.685 15.5048C49.3017 16.4182 49.6272 17.491 49.6272 18.7785H52.6272C52.6272 16.9495 52.1533 15.2803 51.1713 13.826L48.685 15.5048ZM49.6272 18.7785C49.6272 19.747 49.4262 20.5571 49.0595 21.2454L51.7074 22.6557C52.3324 21.4823 52.6272 20.1777 52.6272 18.7785H49.6272ZM49.0628 21.2394C48.68 21.9502 48.1567 22.5375 47.4762 23.0122L49.1928 25.4726C50.2527 24.7331 51.0953 23.7924 51.7042 22.6617L49.0628 21.2394ZM47.4762 23.0122C46.7866 23.4933 45.9697 23.8446 45.0026 24.05L45.6258 26.9846C46.9454 26.7043 48.1421 26.2056 49.1928 25.4726L47.4762 23.0122ZM43.8142 25.5173V25.8208H46.8142V25.5173H43.8142ZM45.2417 27.3191C46.2621 27.3684 47.1863 27.6409 48.0363 28.1347L49.5433 25.5407C48.2685 24.8001 46.8756 24.3946 45.3867 24.3226L45.2417 27.3191ZM48.0417 28.1378C48.8808 28.6207 49.5561 29.2911 50.0765 30.1774L52.6635 28.6584C51.8888 27.3389 50.8439 26.2891 49.538 25.5376L48.0417 28.1378ZM50.0796 30.1826C50.5671 31.0054 50.8414 32.0263 50.8414 33.3033H53.8414C53.8414 31.5853 53.468 30.0159 52.6604 28.6532L50.0796 30.1826ZM50.8414 33.3033C50.8414 34.704 50.4893 35.91 49.8066 36.9666L52.3263 38.5947C53.3435 37.0205 53.8414 35.2417 53.8414 33.3033H50.8414ZM49.8095 36.9622C49.1319 38.0026 48.1321 38.8628 46.7384 39.5202L48.0183 42.2335C49.8421 41.3732 51.3011 40.1692 52.3234 38.5992L49.8095 36.9622ZM46.7454 39.5169C45.3842 40.1505 43.6599 40.5 41.5198 40.5V43.5C43.9735 43.5 46.1549 43.1008 48.0113 42.2368L46.7454 39.5169ZM41.5198 40.5H27.5717V43.5H41.5198V40.5ZM35.0846 37.4442H39.7289V34.4442H35.0846V37.4442ZM39.7289 37.4442C41.4943 37.4442 43.1046 37.1194 44.2649 36.1882L42.387 33.8486C42.0093 34.1518 41.2216 34.4442 39.7289 34.4442V37.4442ZM44.2574 36.1941C45.4382 35.2587 45.9946 33.942 45.9946 32.4382H42.9946C42.9946 33.1401 42.7719 33.5437 42.3945 33.8426L44.2574 36.1941ZM45.9946 32.4382C45.9946 31.3971 45.7477 30.4147 45.1912 29.5574L42.6749 31.1908C42.8671 31.4869 42.9946 31.8806 42.9946 32.4382H45.9946ZM45.1976 29.5673C44.6541 28.7153 43.8895 28.0814 42.9616 27.6584L41.7172 30.3881C42.1654 30.5925 42.4633 30.8592 42.6685 31.1808L45.1976 29.5673ZM42.9781 27.666C42.0448 27.2268 40.991 27.0376 39.8655 27.0376V30.0376C40.6624 30.0376 41.258 30.1722 41.7007 30.3805L42.9781 27.666ZM39.8655 27.0376H35.0846V30.0376H39.8655V27.0376ZM33.5846 28.5376V35.9442H36.5846V28.5376H33.5846ZM35.0846 25.196H39.2432V22.196H35.0846V25.196ZM39.2432 25.196C40.2296 25.196 41.1647 25.0313 42.0196 24.6649L40.8379 21.9075C40.4179 22.0875 39.896 22.196 39.2432 22.196V25.196ZM42.0196 24.6649C42.889 24.2923 43.621 23.7263 44.1529 22.9511L41.6794 21.2536C41.5031 21.5105 41.2434 21.7337 40.8379 21.9075L42.0196 24.6649ZM44.1416 22.9674C44.7109 22.1609 44.9625 21.2247 44.9625 20.2355H41.9625C41.9625 20.7034 41.8499 21.0117 41.6907 21.2373L44.1416 22.9674ZM44.9625 20.2355C44.9625 18.7905 44.4258 17.5221 43.2975 16.6102L41.4117 18.9434C41.7607 19.2254 41.9625 19.5961 41.9625 20.2355H44.9625ZM43.2975 16.6102C42.2169 15.7368 40.8517 15.3813 39.3646 15.3813V18.3813C40.3869 18.3813 41.015 18.6228 41.4117 18.9434L43.2975 16.6102ZM39.3646 15.3813H35.0846V18.3813H39.3646V15.3813ZM33.5846 16.8813V23.696H36.5846V16.8813H33.5846Z" fill="#155E75" mask="url(#path-1-outside-1_88_5)"/>
<mask id="path-3-outside-2_88_5" maskUnits="userSpaceOnUse" x="0.493164" y="9" width="29" height="35" fill="black">
<rect fill="white" x="0.493164" y="9" width="29" height="35"/>
<path d="M27.1407 42V10.9166H14.1791C11.8519 10.9166 9.90412 11.2454 8.33579 11.9031C6.75733 12.5608 5.57349 13.4816 4.78426 14.6654C3.98491 15.8492 3.58524 17.2203 3.58524 18.7785C3.58524 19.9623 3.83314 21.0197 4.32894 21.9506C4.82473 22.8713 5.50772 23.6353 6.37789 24.2424C7.24807 24.8495 8.25484 25.2744 9.39821 25.5173V25.8208C8.14354 25.8815 6.98499 26.2205 5.92257 26.8377C4.85003 27.4549 3.98997 28.315 3.3424 29.4179C2.69483 30.5107 2.37105 31.8058 2.37105 33.3033C2.37105 34.9728 2.79601 36.4653 3.64595 37.7807C4.49589 39.0859 5.72526 40.118 7.33407 40.8769C8.94288 41.6256 10.8957 42 13.1926 42H27.1407ZM19.6278 35.9442H14.9835C13.3545 35.9442 12.1554 35.6356 11.3865 35.0184C10.6073 34.4012 10.2178 33.5411 10.2178 32.4382C10.2178 31.6389 10.405 30.9508 10.7794 30.3741C11.1537 29.7872 11.6849 29.3369 12.373 29.0233C13.061 28.6995 13.8857 28.5376 14.8469 28.5376H19.6278V35.9442ZM19.6278 23.696H15.4692C14.6496 23.696 13.9211 23.5594 13.2836 23.2862C12.6462 23.013 12.1504 22.6184 11.7962 22.1024C11.432 21.5863 11.2499 20.964 11.2499 20.2355C11.2499 19.1933 11.6192 18.3738 12.3578 17.7768C13.0964 17.1798 14.0931 16.8813 15.3478 16.8813H19.6278V23.696Z"/>
</mask>
<path d="M27.1407 42V10.9166H14.1791C11.8519 10.9166 9.90412 11.2454 8.33579 11.9031C6.75733 12.5608 5.57349 13.4816 4.78426 14.6654C3.98491 15.8492 3.58524 17.2203 3.58524 18.7785C3.58524 19.9623 3.83314 21.0197 4.32894 21.9506C4.82473 22.8713 5.50772 23.6353 6.37789 24.2424C7.24807 24.8495 8.25484 25.2744 9.39821 25.5173V25.8208C8.14354 25.8815 6.98499 26.2205 5.92257 26.8377C4.85003 27.4549 3.98997 28.315 3.3424 29.4179C2.69483 30.5107 2.37105 31.8058 2.37105 33.3033C2.37105 34.9728 2.79601 36.4653 3.64595 37.7807C4.49589 39.0859 5.72526 40.118 7.33407 40.8769C8.94288 41.6256 10.8957 42 13.1926 42H27.1407ZM19.6278 35.9442H14.9835C13.3545 35.9442 12.1554 35.6356 11.3865 35.0184C10.6073 34.4012 10.2178 33.5411 10.2178 32.4382C10.2178 31.6389 10.405 30.9508 10.7794 30.3741C11.1537 29.7872 11.6849 29.3369 12.373 29.0233C13.061 28.6995 13.8857 28.5376 14.8469 28.5376H19.6278V35.9442ZM19.6278 23.696H15.4692C14.6496 23.696 13.9211 23.5594 13.2836 23.2862C12.6462 23.013 12.1504 22.6184 11.7962 22.1024C11.432 21.5863 11.2499 20.964 11.2499 20.2355C11.2499 19.1933 11.6192 18.3738 12.3578 17.7768C13.0964 17.1798 14.0931 16.8813 15.3478 16.8813H19.6278V23.696Z" fill="#06B6D4"/>
<path d="M27.1407 42H28.6407V43.5H27.1407V42ZM27.1407 10.9166V9.41656H28.6407V10.9166H27.1407ZM8.33579 11.9031L8.91588 13.2864L8.91271 13.2877L8.33579 11.9031ZM4.78426 14.6654L6.03236 15.4975L6.02741 15.5048L4.78426 14.6654ZM4.32894 21.9506L3.00822 22.6617L3.00501 22.6557L4.32894 21.9506ZM6.37789 24.2424L7.23617 23.0122L7.23617 23.0122L6.37789 24.2424ZM9.39821 25.5173L9.70984 24.05L10.8982 24.3024V25.5173H9.39821ZM9.39821 25.8208H10.8982V27.25L9.4707 27.3191L9.39821 25.8208ZM5.92257 26.8377L6.67608 28.1347L6.67074 28.1378L5.92257 26.8377ZM3.3424 29.4179L4.63592 30.1774L4.63284 30.1826L3.3424 29.4179ZM3.64595 37.7807L2.38895 38.5992L2.38607 38.5947L3.64595 37.7807ZM7.33407 40.8769L6.70114 42.2368L6.69415 42.2335L7.33407 40.8769ZM19.6278 35.9442H21.1278V37.4442H19.6278V35.9442ZM11.3865 35.0184L12.3179 33.8426L12.3254 33.8486L11.3865 35.0184ZM10.7794 30.3741L12.044 31.1808L12.0375 31.1908L10.7794 30.3741ZM12.373 29.0233L13.0117 30.3805L13.0035 30.3844L12.9952 30.3881L12.373 29.0233ZM19.6278 28.5376V27.0376H21.1278V28.5376H19.6278ZM19.6278 23.696H21.1278V25.196H19.6278V23.696ZM11.7962 22.1024L13.0217 21.2373L13.0274 21.2454L13.033 21.2536L11.7962 22.1024ZM12.3578 17.7768L11.4149 16.6102L11.4149 16.6102L12.3578 17.7768ZM19.6278 16.8813V15.3813H21.1278V16.8813H19.6278ZM25.6407 42V10.9166H28.6407V42H25.6407ZM27.1407 12.4166H14.1791V9.41656H27.1407V12.4166ZM14.1791 12.4166C11.9823 12.4166 10.2462 12.7285 8.91588 13.2864L7.7557 10.5198C9.562 9.76232 11.7215 9.41656 14.1791 9.41656V12.4166ZM8.91271 13.2877C7.55164 13.8548 6.62661 14.606 6.03234 15.4974L3.53619 13.8333C4.52037 12.3571 5.96302 11.2668 7.75886 10.5185L8.91271 13.2877ZM6.02741 15.5048C5.41069 16.4182 5.08524 17.491 5.08524 18.7785H2.08524C2.08524 16.9495 2.55914 15.2803 3.54111 13.826L6.02741 15.5048ZM5.08524 18.7785C5.08524 19.747 5.28623 20.5571 5.65286 21.2454L3.00501 22.6557C2.38005 21.4823 2.08524 20.1777 2.08524 18.7785H5.08524ZM5.64964 21.2394C6.03239 21.9502 6.55573 22.5375 7.23617 23.0122L5.51962 25.4726C4.45971 24.7331 3.61708 23.7924 3.00823 22.6617L5.64964 21.2394ZM7.23617 23.0122C7.92581 23.4933 8.74267 23.8446 9.70984 24.05L9.08657 26.9846C7.76701 26.7043 6.57033 26.2056 5.51962 25.4726L7.23617 23.0122ZM10.8982 25.5173V25.8208H7.89821V25.5173H10.8982ZM9.4707 27.3191C8.45031 27.3684 7.52611 27.6409 6.67607 28.1347L5.16907 25.5407C6.44388 24.8001 7.83677 24.3946 9.32571 24.3226L9.4707 27.3191ZM6.67074 28.1378C5.83157 28.6207 5.1563 29.2911 4.63591 30.1774L2.04889 28.6584C2.82365 27.3389 3.86849 26.2891 5.1744 25.5376L6.67074 28.1378ZM4.63284 30.1826C4.14526 31.0054 3.87105 32.0263 3.87105 33.3033H0.871046C0.871046 31.5853 1.24441 30.0159 2.05196 28.6532L4.63284 30.1826ZM3.87105 33.3033C3.87105 34.704 4.22313 35.91 4.90583 36.9666L2.38607 38.5947C1.36889 37.0205 0.871046 35.2417 0.871046 33.3033H3.87105ZM4.90295 36.9622C5.58045 38.0026 6.58027 38.8628 7.974 39.5202L6.69415 42.2335C4.87025 41.3732 3.41132 40.1692 2.38895 38.5992L4.90295 36.9622ZM7.967 39.5169C9.32824 40.1505 11.0525 40.5 13.1926 40.5V43.5C10.7389 43.5 8.55753 43.1008 6.70115 42.2368L7.967 39.5169ZM13.1926 40.5H27.1407V43.5H13.1926V40.5ZM19.6278 37.4442H14.9835V34.4442H19.6278V37.4442ZM14.9835 37.4442C13.2181 37.4442 11.6078 37.1194 10.4475 36.1882L12.3254 33.8486C12.7031 34.1518 13.4908 34.4442 14.9835 34.4442V37.4442ZM10.455 36.1941C9.27416 35.2587 8.71779 33.942 8.71779 32.4382H11.7178C11.7178 33.1401 11.9405 33.5437 12.3179 33.8426L10.455 36.1941ZM8.71779 32.4382C8.71779 31.3971 8.96466 30.4147 9.52119 29.5574L12.0375 31.1908C11.8453 31.4869 11.7178 31.8806 11.7178 32.4382H8.71779ZM9.51476 29.5673C10.0583 28.7153 10.8229 28.0814 11.7508 27.6584L12.9952 30.3881C12.547 30.5925 12.2491 30.8592 12.044 31.1808L9.51476 29.5673ZM11.7343 27.666C12.6676 27.2268 13.7214 27.0376 14.8469 27.0376V30.0376C14.05 30.0376 13.4544 30.1722 13.0117 30.3805L11.7343 27.666ZM14.8469 27.0376H19.6278V30.0376H14.8469V27.0376ZM21.1278 28.5376V35.9442H18.1278V28.5376H21.1278ZM19.6278 25.196H15.4692V22.196H19.6278V25.196ZM15.4692 25.196C14.4828 25.196 13.5477 25.0313 12.6928 24.6649L13.8745 21.9075C14.2945 22.0875 14.8164 22.196 15.4692 22.196V25.196ZM12.6928 24.6649C11.8234 24.2923 11.0915 23.7263 10.5595 22.9511L13.033 21.2536C13.2093 21.5105 13.469 21.7337 13.8745 21.9075L12.6928 24.6649ZM10.5708 22.9674C10.0015 22.1609 9.74986 21.2247 9.74986 20.2355H12.7499C12.7499 20.7034 12.8625 21.0117 13.0217 21.2373L10.5708 22.9674ZM9.74986 20.2355C9.74986 18.7905 10.2866 17.5221 11.4149 16.6102L13.3007 18.9434C12.9517 19.2254 12.7499 19.5961 12.7499 20.2355H9.74986ZM11.4149 16.6102C12.4955 15.7368 13.8607 15.3813 15.3478 15.3813V18.3813C14.3255 18.3813 13.6974 18.6228 13.3007 18.9434L11.4149 16.6102ZM15.3478 15.3813H19.6278V18.3813H15.3478V15.3813ZM21.1278 16.8813V23.696H18.1278V16.8813H21.1278Z" fill="#155E75" mask="url(#path-3-outside-2_88_5)"/>
</svg>
