<svg width="55" height="52" viewBox="0 0 55 52" fill="none" xmlns="http://www.w3.org/2000/svg">
<mask id="path-1-outside-1_88_5" maskUnits="userSpaceOnUse" x="26.2192" y="9" width="28" height="35" fill="black">
<rect fill="white" x="26.2192" y="9" width="28" height="35"/>
<path d="M27.5717 42V10.9166H40.5333C42.8605 10.9166 44.8083 11.2454 46.3766 11.9031C47.9551 12.5608 49.1389 13.4816 49.9281 14.6654C50.7275 15.8492 51.1272 17.2203 51.1272 18.7785C51.1272 19.9623 50.8793 21.0197 50.3835 21.9506C49.8877 22.8713 49.2047 23.6353 48.3345 24.2424C47.4643 24.8495 46.4576 25.2744 45.3142 25.5173V25.8208C46.5689 25.8815 47.7274 26.2205 48.7898 26.8377C49.8624 27.4549 50.7224 28.315 51.37 29.4179C52.0176 30.5107 52.3414 31.8058 52.3414 33.3033C52.3414 34.9728 51.9164 36.4653 51.0665 37.7807C50.2165 39.0859 48.9871 40.118 47.3783 40.8769C45.7695 41.6256 43.8167 42 41.5198 42H27.5717ZM35.0846 35.9442H39.7289C41.3579 35.9442 42.557 35.6356 43.3259 35.0184C44.1051 34.4012 44.4946 33.5411 44.4946 32.4382C44.4946 31.6389 44.3074 30.9508 43.933 30.3741C43.5587 29.7872 43.0275 29.3369 42.3394 29.0233C41.6514 28.6995 40.8267 28.5376 39.8655 28.5376H35.0846V35.9442ZM35.0846 23.696H39.2432C40.0628 23.696 40.7913 23.5594 41.4288 23.2862C42.0662 23.013 42.562 22.6184 42.9162 22.1024C43.2804 21.5863 43.4625 20.964 43.4625 20.2355C43.4625 19.1933 43.0932 18.3738 42.3546 17.7768C41.616 17.1798 40.6193 16.8813 39.3646 16.8813H35.0846V23.696Z"/>
</mask>
<path d="M27.5717 42V10.9166H40.5333C42.8605 10.9166 44.8083 11.2454 46.3766 11.9031C47.9551 12.5608 49.1389 13.4816 49.9281 14.6654C50.7275 15.8492 51.1272 17.2203 51.1272 18.7785C51.1272 19.9623 50.8793 21.0197 50.3835 21.9506C49.8877 22.8713 49.2047 23.6353 48.3345 24.2424C47.4643 24.8495 46.4576 25.2744 45.3142 25.5173V25.8208C46.5689 25.8815 47.7274 26.2205 48.7898 26.8377C49.8624 27.4549 50.7224 28.315 51.37 29.4179C52.0176 30.5107 52.3414 31.8058 52.3414 33.3033C52.3414 34.9728 51.9164 36.4653 51.0665 37.7807C50.2165 39.0859 48.9871 40.118 47.3783 40.8769C45.7695 41.6256 43.8167 42 41.5198 42H27.5717ZM35.0846 35.9442H39.7289C41.3579 35.9442 42.557 35.6356 43.3259 35.0184C44.1051 34.4012 44.4946 33.5411 44.4946 32.4382C44.4946 31.6389 44.3074 30.9508 43.933 30.3741C43.5587 29.7872 43.0275 29.3369 42.3394 29.0233C41.6514 28.6995 40.8267 28.5376 39.8655 28.5376H35.0846V35.9442ZM35.0846 23.696H39.2432C40.0628 23.696 40.7913 23.5594 41.4288 23.2862C42.0662 23.013 42.562 22.6184 42.9162 22.1024C43.2804 21.5863 43.4625 20.964 43.4625 20.2355C43.4625 19.1933 43.0932 18.3738 42.3546 17.7768C41.616 17.1798 40.6193 16.8813 39.3646 16.8813H35.0846V23.696Z" fill="#FFCD02"/>
<path d="M27.5717 42H26.5033V43.0685H27.5717V42ZM27.5717 10.9166V9.84807H26.5033V10.9166H27.5717ZM46.3766 11.9031L45.9634 12.8885L45.9657 12.8894L46.3766 11.9031ZM49.9281 14.6654L49.0391 15.2581L49.0426 15.2633L49.9281 14.6654ZM50.3835 21.9506L51.3243 22.4572L51.3265 22.4529L50.3835 21.9506ZM48.3345 24.2424L47.7231 23.3661L47.7231 23.3661L48.3345 24.2424ZM45.3142 25.5173L45.0922 24.4721L44.2457 24.6519V25.5173H45.3142ZM45.3142 25.8208H44.2457V26.8389L45.2626 26.8881L45.3142 25.8208ZM48.7898 26.8377L48.2531 27.7616L48.2569 27.7638L48.7898 26.8377ZM51.37 29.4179L50.4486 29.9589L50.4508 29.9626L51.37 29.4179ZM51.0665 37.7807L51.9619 38.3637L51.9639 38.3606L51.0665 37.7807ZM47.3783 40.8769L47.8292 41.8456L47.8342 41.8432L47.3783 40.8769ZM35.0846 35.9442H34.0161V37.0127H35.0846V35.9442ZM43.3259 35.0184L42.6624 34.1808L42.6571 34.1851L43.3259 35.0184ZM43.933 30.3741L43.0322 30.9487L43.0368 30.9558L43.933 30.3741ZM42.3394 29.0233L41.8844 29.9901L41.8962 29.9955L42.3394 29.0233ZM35.0846 28.5376V27.4691H34.0161V28.5376H35.0846ZM35.0846 23.696H34.0161V24.7645H35.0846V23.696ZM42.9162 22.1024L42.0432 21.4861L42.0352 21.4978L42.9162 22.1024ZM42.3546 17.7768L43.0262 16.9458L43.0262 16.9458L42.3546 17.7768ZM35.0846 16.8813V15.8128H34.0161V16.8813H35.0846ZM28.6402 42V10.9166H26.5033V42H28.6402ZM27.5717 11.9851H40.5333V9.84807H27.5717V11.9851ZM40.5333 11.9851C42.7676 11.9851 44.5646 12.3019 45.9634 12.8885L46.7898 10.9177C45.052 10.189 42.9534 9.84807 40.5333 9.84807V11.9851ZM45.9657 12.8894C47.3893 13.4826 48.3887 14.2826 49.0391 15.2581L50.8172 14.0727C49.8891 12.6806 48.5209 11.639 46.7876 10.9168L45.9657 12.8894ZM49.0426 15.2633C49.7119 16.2545 50.0587 17.4131 50.0587 18.7785H52.1957C52.1957 17.0274 51.7431 15.444 50.8137 14.0675L49.0426 15.2633ZM50.0587 18.7785C50.0587 19.8089 49.8442 20.6902 49.4404 21.4483L51.3265 22.4529C51.9143 21.3492 52.1957 20.1157 52.1957 18.7785H50.0587ZM49.4427 21.444C49.0274 22.2152 48.4582 22.8533 47.7231 23.3661L48.9459 25.1187C49.9512 24.4173 50.7479 23.5275 51.3242 22.4571L49.4427 21.444ZM47.7231 23.3661C46.9816 23.8835 46.1101 24.2559 45.0922 24.4721L45.5362 26.5625C46.8051 26.293 47.9471 25.8155 48.9459 25.1187L47.7231 23.3661ZM44.2457 25.5173V25.8208H46.3827V25.5173H44.2457ZM45.2626 26.8881C46.3503 26.9407 47.342 27.2323 48.2531 27.7616L49.3266 25.9138C48.1129 25.2087 46.7874 24.8224 45.3658 24.7536L45.2626 26.8881ZM48.2569 27.7638C49.1632 28.2854 49.8916 29.0103 50.4486 29.9589L52.2914 28.8769C51.5532 27.6197 50.5616 26.6245 49.3228 25.9116L48.2569 27.7638ZM50.4508 29.9626C50.9844 30.8631 51.2729 31.9629 51.2729 33.3033H53.4098C53.4098 31.6487 53.0507 30.1583 52.2892 28.8732L50.4508 29.9626ZM51.2729 33.3033C51.2729 34.7813 50.8998 36.0698 50.169 37.2008L51.9639 38.3606C52.933 36.8608 53.4098 35.1643 53.4098 33.3033H51.2729ZM50.1711 37.1976C49.4439 38.3142 48.3781 39.2239 46.9225 39.9105L47.8342 41.8432C49.5962 41.0121 50.9891 39.8576 51.9618 38.3637L50.1711 37.1976ZM46.9275 39.9082C45.495 40.5748 43.705 40.9315 41.5198 40.9315V43.0685C43.9284 43.0685 46.044 42.6764 47.8292 41.8456L46.9275 39.9082ZM41.5198 40.9315H27.5717V43.0685H41.5198V40.9315ZM35.0846 37.0127H39.7289V34.8757H35.0846V37.0127ZM39.7289 37.0127C41.4551 37.0127 42.9471 36.6925 43.9948 35.8517L42.6571 34.1851C42.1668 34.5786 41.2608 34.8757 39.7289 34.8757V37.0127ZM43.9894 35.8559C45.0547 35.012 45.5631 33.8267 45.5631 32.4382H43.4261C43.4261 33.2555 43.1554 33.7903 42.6625 34.1808L43.9894 35.8559ZM45.5631 32.4382C45.5631 31.4667 45.3334 30.5689 44.8293 29.7923L43.0368 30.9558C43.2814 31.3327 43.4261 31.8111 43.4261 32.4382H45.5631ZM44.8339 29.7994C44.339 29.0236 43.6415 28.4426 42.7826 28.051L41.8962 29.9955C42.4134 30.2313 42.7784 30.5508 43.0322 30.9487L44.8339 29.7994ZM42.7944 28.0565C41.9316 27.6505 40.9437 27.4691 39.8655 27.4691V29.6061C40.7097 29.6061 41.3711 29.7485 41.8844 29.9901L42.7944 28.0565ZM39.8655 27.4691H35.0846V29.6061H39.8655V27.4691ZM34.0161 28.5376V35.9442H36.1531V28.5376H34.0161ZM35.0846 24.7645H39.2432V22.6275H35.0846V24.7645ZM39.2432 24.7645C40.1816 24.7645 41.0573 24.6079 41.8497 24.2683L41.0079 22.3041C40.5253 22.5109 39.944 22.6275 39.2432 22.6275V24.7645ZM41.8497 24.2683C42.6523 23.9243 43.3163 23.4076 43.7971 22.7069L42.0352 21.4978C41.8077 21.8292 41.4801 22.1017 41.0079 22.3041L41.8497 24.2683ZM43.7891 22.7185C44.2994 21.9956 44.531 21.1497 44.531 20.2355H42.3941C42.3941 20.7784 42.2615 21.177 42.0432 21.4862L43.7891 22.7185ZM44.531 20.2355C44.531 18.9064 44.0424 17.7671 43.0262 16.9458L41.683 18.6078C42.144 18.9804 42.3941 19.4803 42.3941 20.2355H44.531ZM43.0262 16.9458C42.044 16.1519 40.7848 15.8128 39.3646 15.8128V17.9498C40.4538 17.9498 41.1879 18.2077 41.683 18.6078L43.0262 16.9458ZM39.3646 15.8128H35.0846V17.9498H39.3646V15.8128ZM34.0161 16.8813V23.696H36.1531V16.8813H34.0161Z" fill="black" mask="url(#path-1-outside-1_88_5)"/>
<mask id="path-3-outside-2_88_5" maskUnits="userSpaceOnUse" x="0.493164" y="9" width="28" height="35" fill="black">
<rect fill="white" x="0.493164" y="9" width="28" height="35"/>
<path d="M27.1407 42V10.9166H14.1791C11.8519 10.9166 9.90412 11.2454 8.33579 11.9031C6.75733 12.5608 5.57349 13.4816 4.78426 14.6654C3.98491 15.8492 3.58524 17.2203 3.58524 18.7785C3.58524 19.9623 3.83314 21.0197 4.32894 21.9506C4.82473 22.8713 5.50772 23.6353 6.37789 24.2424C7.24807 24.8495 8.25484 25.2744 9.39821 25.5173V25.8208C8.14354 25.8815 6.98499 26.2205 5.92257 26.8377C4.85003 27.4549 3.98997 28.315 3.3424 29.4179C2.69483 30.5107 2.37105 31.8058 2.37105 33.3033C2.37105 34.9728 2.79601 36.4653 3.64595 37.7807C4.49589 39.0859 5.72526 40.118 7.33407 40.8769C8.94288 41.6256 10.8957 42 13.1926 42H27.1407ZM19.6278 35.9442H14.9835C13.3545 35.9442 12.1554 35.6356 11.3865 35.0184C10.6073 34.4012 10.2178 33.5411 10.2178 32.4382C10.2178 31.6389 10.405 30.9508 10.7794 30.3741C11.1537 29.7872 11.6849 29.3369 12.373 29.0233C13.061 28.6995 13.8857 28.5376 14.8469 28.5376H19.6278V35.9442ZM19.6278 23.696H15.4692C14.6496 23.696 13.9211 23.5594 13.2836 23.2862C12.6462 23.013 12.1504 22.6184 11.7962 22.1024C11.432 21.5863 11.2499 20.964 11.2499 20.2355C11.2499 19.1933 11.6192 18.3738 12.3578 17.7768C13.0964 17.1798 14.0931 16.8813 15.3478 16.8813H19.6278V23.696Z"/>
</mask>
<path d="M27.1407 42V10.9166H14.1791C11.8519 10.9166 9.90412 11.2454 8.33579 11.9031C6.75733 12.5608 5.57349 13.4816 4.78426 14.6654C3.98491 15.8492 3.58524 17.2203 3.58524 18.7785C3.58524 19.9623 3.83314 21.0197 4.32894 21.9506C4.82473 22.8713 5.50772 23.6353 6.37789 24.2424C7.24807 24.8495 8.25484 25.2744 9.39821 25.5173V25.8208C8.14354 25.8815 6.98499 26.2205 5.92257 26.8377C4.85003 27.4549 3.98997 28.315 3.3424 29.4179C2.69483 30.5107 2.37105 31.8058 2.37105 33.3033C2.37105 34.9728 2.79601 36.4653 3.64595 37.7807C4.49589 39.0859 5.72526 40.118 7.33407 40.8769C8.94288 41.6256 10.8957 42 13.1926 42H27.1407ZM19.6278 35.9442H14.9835C13.3545 35.9442 12.1554 35.6356 11.3865 35.0184C10.6073 34.4012 10.2178 33.5411 10.2178 32.4382C10.2178 31.6389 10.405 30.9508 10.7794 30.3741C11.1537 29.7872 11.6849 29.3369 12.373 29.0233C13.061 28.6995 13.8857 28.5376 14.8469 28.5376H19.6278V35.9442ZM19.6278 23.696H15.4692C14.6496 23.696 13.9211 23.5594 13.2836 23.2862C12.6462 23.013 12.1504 22.6184 11.7962 22.1024C11.432 21.5863 11.2499 20.964 11.2499 20.2355C11.2499 19.1933 11.6192 18.3738 12.3578 17.7768C13.0964 17.1798 14.0931 16.8813 15.3478 16.8813H19.6278V23.696Z" fill="#FFCD02"/>
<path d="M27.1407 42H28.2092V43.0685H27.1407V42ZM27.1407 10.9166V9.84807H28.2092V10.9166H27.1407ZM8.33579 11.9031L8.749 12.8885L8.74674 12.8894L8.33579 11.9031ZM4.78426 14.6654L5.67332 15.2581L5.66979 15.2633L4.78426 14.6654ZM4.32894 21.9506L3.38815 22.4572L3.38587 22.4529L4.32894 21.9506ZM6.37789 24.2424L6.98927 23.3661L6.98927 23.3661L6.37789 24.2424ZM9.39821 25.5173L9.62019 24.4721L10.4667 24.6519V25.5173H9.39821ZM9.39821 25.8208H10.4667V26.8389L9.44985 26.8881L9.39821 25.8208ZM5.92257 26.8377L6.45932 27.7616L6.45551 27.7638L5.92257 26.8377ZM3.3424 29.4179L4.26382 29.9589L4.26162 29.9626L3.3424 29.4179ZM3.64595 37.7807L2.75055 38.3637L2.7485 38.3606L3.64595 37.7807ZM7.33407 40.8769L6.88322 41.8456L6.87823 41.8432L7.33407 40.8769ZM19.6278 35.9442H20.6963V37.0127H19.6278V35.9442ZM11.3865 35.0184L12.05 34.1808L12.0553 34.1851L11.3865 35.0184ZM10.7794 30.3741L11.6802 30.9487L11.6756 30.9558L10.7794 30.3741ZM12.373 29.0233L12.828 29.9901L12.8162 29.9955L12.373 29.0233ZM19.6278 28.5376V27.4691H20.6963V28.5376H19.6278ZM19.6278 23.696H20.6963V24.7645H19.6278V23.696ZM11.7962 22.1024L12.6692 21.4861L12.6772 21.4978L11.7962 22.1024ZM12.3578 17.7768L11.6862 16.9458L11.6862 16.9458L12.3578 17.7768ZM19.6278 16.8813V15.8128H20.6963V16.8813H19.6278ZM26.0722 42V10.9166H28.2092V42H26.0722ZM27.1407 11.9851H14.1791V9.84807H27.1407V11.9851ZM14.1791 11.9851C11.9448 11.9851 10.1478 12.3019 8.749 12.8885L7.92257 10.9177C9.66042 10.189 11.759 9.84807 14.1791 9.84807V11.9851ZM8.74674 12.8894C7.32314 13.4826 6.32366 14.2826 5.6733 15.2581L3.89522 14.0727C4.82332 12.6806 6.19152 11.639 7.92483 10.9168L8.74674 12.8894ZM5.66979 15.2633C5.00054 16.2545 4.65373 17.4131 4.65373 18.7785H2.51675C2.51675 17.0274 2.96929 15.444 3.89873 14.0675L5.66979 15.2633ZM4.65373 18.7785C4.65373 19.8089 4.86822 20.6902 5.27201 21.4483L3.38587 22.4529C2.79806 21.3492 2.51675 20.1157 2.51675 18.7785H4.65373ZM5.26971 21.444C5.68498 22.2152 6.25425 22.8533 6.98927 23.3661L5.76652 25.1187C4.76119 24.4173 3.96448 23.5275 3.38816 22.4571L5.26971 21.444ZM6.98927 23.3661C7.73084 23.8835 8.60234 24.2559 9.62019 24.4721L9.17622 26.5625C7.90734 26.293 6.76529 25.8155 5.76652 25.1187L6.98927 23.3661ZM10.4667 25.5173V25.8208H8.32972V25.5173H10.4667ZM9.44985 26.8881C8.36206 26.9407 7.37044 27.2323 6.45931 27.7616L5.38583 25.9138C6.59954 25.2087 7.92502 24.8224 9.34657 24.7536L9.44985 26.8881ZM6.45551 27.7638C5.54921 28.2854 4.82078 29.0103 4.26381 29.9589L2.421 28.8769C3.15917 27.6197 4.15085 26.6245 5.38963 25.9116L6.45551 27.7638ZM4.26162 29.9626C3.72801 30.8631 3.43954 31.9629 3.43954 33.3033H1.30255C1.30255 31.6487 1.66165 30.1583 2.42319 28.8732L4.26162 29.9626ZM3.43954 33.3033C3.43954 34.7813 3.81259 36.0698 4.5434 37.2008L2.7485 38.3606C1.77944 36.8608 1.30255 35.1643 1.30255 33.3033H3.43954ZM4.54135 37.1976C5.26845 38.3142 6.33431 39.2239 7.78991 39.9105L6.87823 41.8432C5.11622 41.0121 3.72332 39.8576 2.75056 38.3637L4.54135 37.1976ZM7.78492 39.9082C9.21738 40.5748 11.0074 40.9315 13.1926 40.9315V43.0685C10.784 43.0685 8.66839 42.6764 6.88322 41.8456L7.78492 39.9082ZM13.1926 40.9315H27.1407V43.0685H13.1926V40.9315ZM19.6278 37.0127H14.9835V34.8757H19.6278V37.0127ZM14.9835 37.0127C13.2573 37.0127 11.7653 36.6925 10.7176 35.8517L12.0553 34.1851C12.5456 34.5786 13.4516 34.8757 14.9835 34.8757V37.0127ZM10.723 35.8559C9.65768 35.012 9.1493 33.8267 9.1493 32.4382H11.2863C11.2863 33.2555 11.557 33.7903 12.05 34.1808L10.723 35.8559ZM9.1493 32.4382C9.1493 31.4667 9.379 30.5689 9.88313 29.7923L11.6756 30.9558C11.431 31.3327 11.2863 31.8111 11.2863 32.4382H9.1493ZM9.87855 29.7994C10.3734 29.0236 11.0709 28.4426 11.9298 28.051L12.8162 29.9955C12.299 30.2313 11.934 30.5508 11.6802 30.9487L9.87855 29.7994ZM11.918 28.0565C12.7808 27.6505 13.7687 27.4691 14.8469 27.4691V29.6061C14.0027 29.6061 13.3413 29.7485 12.828 29.9901L11.918 28.0565ZM14.8469 27.4691H19.6278V29.6061H14.8469V27.4691ZM20.6963 28.5376V35.9442H18.5593V28.5376H20.6963ZM19.6278 24.7645H15.4692V22.6275H19.6278V24.7645ZM15.4692 24.7645C14.5308 24.7645 13.6551 24.6079 12.8627 24.2683L13.7045 22.3041C14.1871 22.5109 14.7684 22.6275 15.4692 22.6275V24.7645ZM12.8627 24.2683C12.0601 23.9243 11.3961 23.4076 10.9153 22.7069L12.6772 21.4978C12.9047 21.8292 13.2323 22.1017 13.7045 22.3041L12.8627 24.2683ZM10.9233 22.7185C10.413 21.9956 10.1814 21.1497 10.1814 20.2355H12.3184C12.3184 20.7784 12.451 21.177 12.6692 21.4862L10.9233 22.7185ZM10.1814 20.2355C10.1814 18.9064 10.67 17.7671 11.6862 16.9458L13.0295 18.6078C12.5684 18.9804 12.3184 19.4803 12.3184 20.2355H10.1814ZM11.6862 16.9458C12.6684 16.1519 13.9276 15.8128 15.3478 15.8128V17.9498C14.2586 17.9498 13.5245 18.2077 13.0295 18.6078L11.6862 16.9458ZM15.3478 15.8128H19.6278V17.9498H15.3478V15.8128ZM20.6963 16.8813V23.696H18.5593V16.8813H20.6963Z" fill="black" mask="url(#path-3-outside-2_88_5)"/>
</svg>
